Patient4_TMGait_0pt7_02_right_35_EMG.mot
version=1
nRows=20
nColumns=33
inDegrees=no
endheader
time	1LAddLong	2LGlutMax	3LGlutMed	4LIliopsoas	5LSemiMemb	6LBicFemLong	7LRecFem	8LVastMed	9LVastLat	10LGasMed	11LTibAnt	12lTibPost	13LPeroneusLong	14LSol	15LExtDigLong	16LFlexDigLong	17RAddLong	18RGlutMax	19RGlutMed	20RIliopsoas	21RSemiMemb	22RBicFemLong	23RRecFem	24RVastMed	25RVastLat	26RGasMed	27RTibAnt	28RTibPost	29RPeroneusLong	30RSol	31RExtDigLong	32RFlexDigLong
39.897	-0.014801	-0.76858	0.28137	0.022583	0.012512	-0.010376	0.39169	0.009613	0.024872	-0.037994	-0.20996	-0.010681	-0.11627	0.092468	-0.10071	0.009918	0.022278	-0.10925	-1.6748	0.054016	-0.233	0.010071	0.42618	0.12955	-0.091248	-0.021362	0.28366	0.01358	0.24674	0.024414	-0.003204	-0.050201
39.898	-0.011444	-0.78232	0.27878	-0.024719	0.003662	0.007019	0.38452	0.027161	-0.000153	-0.042877	-0.17273	-0.003662	-0.07431	0.063019	-0.19836	0.002289	-0.046387	-0.14542	-1.8533	0.077972	-0.29633	-0.20523	0.48721	0.18127	-0.14694	0.011749	0.48813	-0.011292	-0.033264	0.12054	0.001831	-0.050964
39.899	-0.009918	-0.76858	0.27618	-0.02533	0.011444	0.000763	0.39948	0.011749	-0.010376	-0.0354	-0.092316	0.006409	-0.097961	0.072021	-0.09491	0.002747	-0.13962	-0.34958	-1.8857	0.039825	-0.10788	-0.16022	0.4512	0.15823	-0.0914	0.014191	0.47394	-0.008545	0.44891	0.26428	-0.003052	-0.036316
39.9	-0.005798	-0.73608	0.2623	0.011902	0.005035	0.02121	0.39215	0.027008	-0.020599	-0.02243	-0.06073	-0.005035	-0.11047	0.05188	-0.028839	0	-0.16022	-0.3862	-1.758	0.032959	0.034637	0.06424	0.60974	0.15152	-0.014954	0.012512	0.27374	0.007324	0.52506	0.27374	-0.007172	-0.038147
39.901	-0.005646	-0.65994	0.27084	0.036011	0.008545	0.029602	0.36316	0.008087	-0.013123	-0.016937	-0.050354	-0.021667	-0.13901	0.061035	0.11581	0.000153	-0.12802	-0.36118	-2.1811	0.03067	0.49866	0.4538	0.6958	0.19745	-0.033722	0.059814	0.10605	0.042877	0.45761	-0.060577	-0.00351	-0.036469
39.902	-0.018768	-0.53772	0.25543	0.024109	0.007172	0.02594	0.33402	0.019073	-0.001831	-0.005493	-0.033264	-0.005493	-0.14938	0.076447	0.50217	0.01358	-0.074005	-0.39505	-2.5894	0.042419	0.40939	0.33356	0.64072	0.25177	-0.11826	0.062408	-0.00885	0.016785	-0.22903	-0.23193	-0.002747	-0.035858
39.903	-0.028992	-0.35141	0.26367	0.018616	0.008087	0.031891	0.24414	0.024109	-0.005951	-0.005951	0.14755	-0.007629	-0.14648	0.087585	0.067444	0.016632	-0.033875	-0.3862	-2.839	-0.016022	0.21576	-0.052032	0.61493	0.103	-0.20126	0.058441	0.072784	-0.011139	0.20798	-0.28549	-0.001373	-0.038757
39.904	-0.038452	-0.18188	0.22263	0.011444	0.009918	0.028839	0.14511	0.020905	-0.002441	0.000153	0.19257	-0.007019	-0.14984	0.092316	0.18936	0.015411	-0.010223	-0.34012	-2.7579	-0.048981	0.10117	-0.25513	0.4744	0.02182	-0.18433	0.031281	0.12131	-0.00412	1.082	-0.32288	0.003662	-0.03067
39.905	-0.032654	-0.028076	0.21332	-0.007019	0.000763	0.018005	0.22903	0.01709	0.004883	0.002136	0.10437	-0.002899	-0.11536	0.068359	0.048676	0.011902	0.008087	-0.3746	-2.8209	-0.033722	0.062408	-0.12619	0.2684	-0.0177	-0.03067	0.0177	0.034027	-0.006256	0.31418	-0.33325	-0.001068	-0.025787
39.906	-0.015259	0.159	0.24933	-0.028687	-0.00946	0.014191	0.30563	0.023346	0.009766	-0.006256	-0.10559	-0.005341	-0.047455	0.092926	-0.015106	0.012512	0.049438	-0.23499	-2.2957	-0.035095	-0.047455	-0.11292	0.25787	0.018005	0.17914	0.003204	-0.16449	-0.000153	-0.40497	-0.22186	-0.004578	-0.024719
39.907	-0.016785	0.29312	0.23132	-0.009918	-0.007324	0.004425	0.47653	0.014648	-0.010223	0.007477	-0.16327	-0.007477	-0.035553	0.073853	0.071716	0.003967	0.075684	-0.17853	-1.6905	-0.057373	-0.24811	-0.16556	0.49789	-0.070496	0.090027	0.005341	-0.40176	0.002747	-0.41687	-0.22049	0.002594	-0.019379
39.908	-0.014343	0.46524	0.23392	-0.019379	0.001526	-0.030212	0.513	0.011444	-0.001526	0.013733	-0.075836	-0.006256	-0.070496	0.11566	0.26764	-0.007324	0.11139	-0.042877	-1.4771	-0.081024	-0.29816	-0.082245	0.59616	-0.068207	0.026245	0.024719	-0.4538	0.000763	0.23117	-0.13962	-0.003357	-0.016632
39.909	-0.008698	0.58701	0.22034	-0.005493	0.001221	-0.042572	0.45883	0.014648	-0.040894	0.005341	-0.046692	0.000305	-0.07843	0.15533	-0.26749	-0.001678	0.07843	-0.04303	-1.2334	-0.062714	-0.2002	-0.033569	0.46402	0.078583	0.047302	0.043335	-0.40298	0.004272	0.45319	-0.17517	-0.001984	-0.023041
39.91	-0.01297	0.68756	0.1239	-0.005646	-0.001678	-0.049896	0.3363	0.016022	-0.0383	0.011902	0.070496	-0.007324	-0.085907	0.12344	-0.044861	0.004883	0.02533	0.015564	-1.6855	-0.000305	0.026703	-0.019836	0.4422	0.00885	-0.011292	0.016632	-0.052032	-0.005646	0.081024	-0.16663	-0.005798	-0.020447
39.911	-0.009918	0.7869	0.13672	-0.011902	0.010223	-0.062408	0.44327	0.017548	-0.020142	0.022278	0.048676	0.001221	-0.11932	0.1152	0.37933	-0.004578	-0.01236	0.058136	-1.9136	-0.009003	0.11597	0.028381	0.4393	-0.028076	-0.050049	-0.051117	-0.18707	-0.006714	-0.41596	0.025635	-0.003204	-0.024109
39.912	-0.004883	0.89096	0.14984	0.001221	0.017853	-0.045471	0.54947	0.025177	-0.020599	0.027161	0.036469	-0.002441	-0.15595	0.12421	0.03418	-0.003967	-0.050812	0.055542	-2.4396	0.026703	0.088043	0.13077	0.4538	-0.10346	-0.07019	-0.15991	-0.42831	-0.015869	-0.45563	0.2214	-0.000458	-0.021362
39.913	-0.007324	0.94116	0.15442	-0.005798	0.018158	-0.070801	0.5278	0.025177	-0.023651	0.038605	0.071869	-0.014496	-0.15915	0.099945	-0.39887	-0.001831	-0.031433	0.009155	-3.1342	0.009308	-0.18402	0.11932	0.42526	-0.24612	-0.095062	-0.23773	-0.33997	-0.018311	-0.34592	0.26413	-0.004272	-0.020752
39.914	-0.015411	0.94635	0.17273	-0.036621	0.017548	-0.11002	0.50461	0.015869	-0.008545	0.019531	0.088501	0.001068	-0.12009	0.074615	-0.64087	-0.004425	-0.055542	-0.12665	-3.4969	0.068359	-0.18646	-0.040894	0.3157	-0.24536	-0.077972	-0.21683	-0.090332	-0.032806	-0.79788	0.24445	-0.007019	-0.018005
39.915	-0.006866	0.97076	0.18555	-0.005646	0.026245	-0.10086	0.45273	0.007172	0.034943	-0.008698	-0.061951	-0.006104	-0.0354	0.087738	0.04425	-0.005341	-0.08728	-0.024567	-2.8281	-0.093384	-0.2446	-0.089111	0.093994	-0.010681	-0.040131	-0.11108	-0.000916	-0.052948	-0.71198	0.086975	-0.002747	-0.014801
39.916	-0.011444	0.92834	0.12314	0.029755	0.032959	-0.084381	0.37964	0.006714	0.052643	0.001526	-0.16068	-0.010681	-0.037842	0.055695	0.12894	-0.005798	-0.048676	0.024719	-1.804	-0.17136	0.06485	-0.016022	-0.006256	0.048981	-0.03418	0.002899	-0.10925	0.070496	0.98236	-0.12116	-0.006409	-0.006866
